<?xml version="1.0" encoding="utf-8"?>
<!-- Generator: Adobe Illustrator 24.1.1, SVG Export Plug-In . SVG Version: 6.00 Build 0)  -->
<svg version="1.1" id="Layer_1" xmlns="http://www.w3.org/2000/svg" xmlns:xlink="http://www.w3.org/1999/xlink" x="0px" y="0px"
	 viewBox="0 0 396.85 396.85" style="enable-background:new 0 0 396.85 396.85;" xml:space="preserve">
<style type="text/css">
	.st0{fill:url(#SVGID_1_);}
	.st1{fill:url(#SVGID_2_);}
	.st2{fill:none;stroke:url(#SVGID_3_);stroke-miterlimit:10;}
	.st3{opacity:0.5;fill:url(#SVGID_4_);}
	.st4{opacity:0.51;fill:none;stroke:url(#SVGID_5_);stroke-miterlimit:10;}
	.st5{fill:url(#SVGID_6_);}
</style>
<linearGradient id="SVGID_1_" gradientUnits="userSpaceOnUse" x1="2.169125e-05" y1="306.35" x2="396.8504" y2="306.35">
	<stop  offset="0" style="stop-color:#021A31"/>
	<stop  offset="1" style="stop-color:#10BEE0"/>
</linearGradient>
<path class="st0" d="M0,287.88h6.24l6.83,22.72l8.43-21.17h0.23l8.43,21.15l6.81-22.7h6.24l-11.69,37.16h-0.53l-9.43-22.2l-9.3,22.2
	h-0.53L0,287.88z M53.06,293.57V303h13.93v5.76H53.06v10.19H69.2v5.76H47.28v-36.82H69.2v5.69H53.06z M100.56,313.49
	c0,5.64-4.27,11.21-11.58,11.21H75.21v-36.82h10.05c6.35,0,10.64,4.57,10.64,9.46c0,3.97-2.76,6.62-4.13,6.62
	C95.9,303.96,100.56,307.75,100.56,313.49z M80.96,293.5v9.18l4.57-0.02c2.85,0.02,4.96-1.94,4.96-4.57c0-2.63-2.28-4.59-4.89-4.59
	H80.96z M94.92,313.1c0-2.79-2.38-5.34-6.55-5.34l-7.4,0.02v11.28h7.49C91.77,319.06,94.92,316.66,94.92,313.1z M148.32,306.34
	c0,11.31-7.29,18.36-18.98,18.36h-10.48v-36.82h10.48C141.03,287.86,148.32,294.94,148.32,306.34z M142.47,306.32
	c0-7.81-5.07-12.7-13.16-12.7h-4.7v25.33h4.77C137.42,318.95,142.47,314.08,142.47,306.32z M159.39,293.57V303h13.93v5.76h-13.93
	v10.19h16.15v5.76h-21.93v-36.82h21.93v5.69H159.39z M212.84,287.88l-16.99,37.57h-0.39l-16.92-37.57h6.14l10.96,24.92l11.01-24.92
	H212.84z M222.7,293.57V303h13.93v5.76H222.7v10.19h16.15v5.76h-21.93v-36.82h21.93v5.69H222.7z M267.06,318.95v5.76h-22.2v-36.82
	h5.78v31.06H267.06z M268.36,306.34c0-10.51,8.54-19.09,19.02-19.09c10.46,0,19.05,8.59,19.05,19.09c0,10.41-8.59,18.96-19.07,18.96
	C276.9,325.29,268.36,316.75,268.36,306.34z M300.58,306.29c0-7.29-5.96-13.22-13.22-13.22c-7.26,0-13.18,5.94-13.18,13.22
	c0,7.24,5.92,13.16,13.18,13.16C294.62,319.45,300.58,313.53,300.58,306.29z M311.73,287.88h12.31c7.13,0,12.95,5.46,12.95,12.15
	c0,6.55-5.82,11.9-12.95,11.9h-6.53v12.77h-5.78V287.88z M331.21,299.99c0-3.52-3.22-6.37-7.17-6.37h-6.53v12.58l6.53,0.02
	C327.99,306.25,331.21,303.44,331.21,299.99z M347.36,293.57V303h13.93v5.76h-13.93v10.19h16.15v5.76h-21.93v-36.82h21.93v5.69
	H347.36z M389.75,324.7l-9.91-14.25h-4.52v14.25h-5.78l-0.02-36.82h11.44c6.85,0,12.47,5.28,12.47,11.83
	c0,4.75-3.06,8.88-7.29,10.25l10.71,14.73H389.75z M381.09,305.65c3.47,0.02,6.37-2.79,6.37-6.08c0-3.43-2.95-5.96-6.37-5.96h-5.8
	v12.04H381.09z"/>
<linearGradient id="SVGID_2_" gradientUnits="userSpaceOnUse" x1="-3.3976" y1="165.9417" x2="89.7037" y2="165.9417" gradientTransform="matrix(0.9772 0.2124 -0.2124 0.9772 113.3726 -11.3068)">
	<stop  offset="0" style="stop-color:#021A31"/>
	<stop  offset="1" style="stop-color:#10BEE0"/>
</linearGradient>
<path class="st1" d="M168.18,126.77c-2.88-0.63-5.72,1.2-6.35,4.08c-0.63,2.88,1.2,5.72,4.08,6.35c2.88,0.63,5.72-1.2,6.35-4.08
	S171.06,127.39,168.18,126.77z M127.24,202.33c-1.7-0.37-3.39,0.71-3.76,2.42c-0.37,1.7,0.71,3.39,2.42,3.76s3.39-0.71,3.76-2.42
	C130.03,204.38,128.94,202.7,127.24,202.33z M146.79,145.36c-4.62-1.01-9.19,1.93-10.19,6.55c-1.01,4.62,1.93,9.19,6.55,10.19
	c4.62,1.01,9.19-1.93,10.19-6.55C154.35,150.93,151.41,146.37,146.79,145.36z M138.67,102.81c-4.62-1.01-9.19,1.93-10.19,6.55
	c-1.01,4.62,1.93,9.19,6.55,10.19c4.62,1.01,9.19-1.93,10.19-6.55C146.22,108.38,143.29,103.82,138.67,102.81z M83.73,149.43
	c-4.62-1.01-9.19,1.93-10.19,6.55c-1.01,4.62,1.93,9.19,6.55,10.19s9.19-1.93,10.19-6.55S88.35,150.44,83.73,149.43z M119.75,171.2
	c-2.49-0.54-4.94,1.04-5.48,3.52s1.04,4.94,3.52,5.48c2.49,0.54,4.94-1.04,5.48-3.52S122.23,171.74,119.75,171.2z M72.9,204.32
	c-1.74-0.38-3.45,0.72-3.83,2.46s0.72,3.45,2.46,3.83c1.74,0.38,3.45-0.72,3.83-2.46C75.73,206.41,74.63,204.7,72.9,204.32z
	 M97.15,194.31c-2.49-0.54-4.94,1.04-5.48,3.52c-0.54,2.49,1.04,4.94,3.52,5.48c2.49,0.54,4.94-1.04,5.48-3.52
	C101.21,197.3,99.63,194.85,97.15,194.31z M155.82,183.61c-3.68-0.8-7.32,1.54-8.12,5.22s1.54,7.32,5.22,8.12
	c3.68,0.8,7.32-1.54,8.12-5.22S159.5,184.41,155.82,183.61z M108.86,137.12c-2.42-0.52-4.8,1.01-5.32,3.42
	c-0.52,2.42,1.01,4.8,3.42,5.32c2.42,0.52,4.8-1.01,5.32-3.42C112.81,140.03,111.28,137.64,108.86,137.12z"/>
<linearGradient id="SVGID_3_" gradientUnits="userSpaceOnUse" x1="7.356" y1="170.5611" x2="80.2857" y2="170.5611" gradientTransform="matrix(0.9772 0.2124 -0.2124 0.9772 113.3726 -11.3068)">
	<stop  offset="0" style="stop-color:#021A31"/>
	<stop  offset="1" style="stop-color:#10BEE0"/>
</linearGradient>
<path class="st2" d="M122.45,172.97l17.14-12.6 M163.01,135.45l-11.85,12.36 M129.75,115.96l-18.4,22.69 M135.03,119.56
	l-15.28,51.64 M142.83,145.47l-4.41-25.86 M152.68,183.7l-4.55-22 M149.3,185.71l-26.03-9.03 M89.1,162.41l25.17,12.31
	 M125.54,201.96l-5.71-21.79 M82.73,166.3l10.85,28.71 M100.67,199.79l22.81,4.96 M91.64,199.63l-16.93,5.83"/>
<linearGradient id="SVGID_4_" gradientUnits="userSpaceOnUse" x1="-0.0456" y1="181.0173" x2="102.4957" y2="155.3308" gradientTransform="matrix(0.9772 0.2124 -0.2124 0.9772 113.3726 -11.3068)">
	<stop  offset="0" style="stop-color:#021A31"/>
	<stop  offset="1" style="stop-color:#10BEE0"/>
</linearGradient>
<path class="st3" d="M175.62,134.52c-2.88-0.63-5.72,1.2-6.35,4.08c-0.63,2.88,1.2,5.72,4.08,6.35s5.72-1.2,6.35-4.08
	S178.5,135.15,175.62,134.52z M134.69,210.08c-1.7-0.37-3.39,0.71-3.76,2.42s0.71,3.39,2.42,3.76c1.7,0.37,3.39-0.71,3.76-2.42
	C137.47,212.14,136.39,210.46,134.69,210.08z M154.24,153.12c-4.62-1.01-9.19,1.93-10.19,6.55c-1.01,4.62,1.93,9.19,6.55,10.19
	c4.62,1.01,9.19-1.93,10.19-6.55C161.79,158.69,158.86,154.12,154.24,153.12z M146.11,110.57c-4.62-1.01-9.19,1.93-10.19,6.55
	c-1.01,4.62,1.93,9.19,6.55,10.19c4.62,1.01,9.19-1.93,10.19-6.55C153.67,116.14,150.74,111.58,146.11,110.57z M91.17,157.19
	c-4.62-1.01-9.19,1.93-10.19,6.55s1.93,9.19,6.55,10.19c4.62,1.01,9.19-1.93,10.19-6.55S95.8,158.2,91.17,157.19z M127.19,178.96
	c-2.49-0.54-4.94,1.04-5.48,3.52c-0.54,2.49,1.04,4.94,3.52,5.48c2.49,0.54,4.94-1.04,5.48-3.52
	C131.26,181.95,129.68,179.5,127.19,178.96z M80.34,212.08c-1.74-0.38-3.45,0.72-3.83,2.46s0.72,3.45,2.46,3.83
	c1.74,0.38,3.45-0.72,3.83-2.46S82.08,212.46,80.34,212.08z M104.6,202.06c-2.49-0.54-4.94,1.04-5.48,3.52
	c-0.54,2.49,1.04,4.94,3.52,5.48c2.49,0.54,4.94-1.04,5.48-3.52C108.66,205.06,107.08,202.6,104.6,202.06z M163.27,191.37
	c-3.68-0.8-7.32,1.54-8.12,5.22s1.54,7.32,5.22,8.12c3.68,0.8,7.32-1.54,8.12-5.22S166.95,192.17,163.27,191.37z M116.31,144.88
	c-2.42-0.52-4.8,1.01-5.32,3.42c-0.52,2.42,1.01,4.8,3.42,5.32c2.42,0.52,4.8-1.01,5.32-3.42
	C120.26,147.78,118.73,145.4,116.31,144.88z"/>
<linearGradient id="SVGID_5_" gradientUnits="userSpaceOnUse" x1="6.5021" y1="183.9901" x2="94.7242" y2="161.8905" gradientTransform="matrix(0.9772 0.2124 -0.2124 0.9772 113.3726 -11.3068)">
	<stop  offset="0" style="stop-color:#021A31"/>
	<stop  offset="1" style="stop-color:#10BEE0"/>
</linearGradient>
<path class="st4" d="M129.9,180.72l17.14-12.6 M170.45,143.2l-11.85,12.36 M137.19,123.72l-18.4,22.69 M142.47,127.32l-15.28,51.64
	 M150.28,153.23l-4.41-25.86 M160.13,191.45l-4.55-22 M156.75,193.47l-26.03-9.03 M96.55,170.17l25.17,12.31 M132.98,209.71
	l-5.71-21.79 M90.17,174.06l10.85,28.71 M108.12,207.54l22.81,4.96 M99.09,207.39l-16.93,5.83"/>
<linearGradient id="SVGID_6_" gradientUnits="userSpaceOnUse" x1="9.3511" y1="165.0121" x2="387.4994" y2="165.0121">
	<stop  offset="0" style="stop-color:#021A31"/>
	<stop  offset="1" style="stop-color:#10BEE0"/>
</linearGradient>
<path class="st5" d="M9.35,165.41c0-61.49,49.99-111.75,111.35-111.75c61.22,0,111.48,50.26,111.48,111.75
	c0,60.95-50.26,110.95-111.61,110.95C59.34,276.36,9.35,226.37,9.35,165.41z M197.96,165.15c0-42.64-34.89-77.39-77.39-77.39
	c-42.51,0-77.13,34.75-77.13,77.39c0,42.37,34.62,76.99,77.13,76.99C163.07,242.14,197.96,207.52,197.96,165.15z M387.5,90.96
	h-57.74v181.92H295.8V90.96h-57.75V57.41H387.5V90.96z"/>
</svg>
